<svg xmlns="http://www.w3.org/2000/svg" style="display: none;">
  <defs>
    <symbol id="truck-icon-light" fill="none" viewBox="0 0 640 512">
      <g class="truck-icon-light">
        <path fill="var(--icon-stroke)" fill-rule="evenodd" d="M632 384h-24V275.9c0-16.8-6.8-33.3-18.8-45.2l-83.9-83.9c-11.8-12-28.3-18.8-45.2-18.8H416V78.6c0-25.7-22.2-46.6-49.4-46.6H49.4C22.2 32 0 52.9 0 78.6v290.8C0 395.1 22.2 416 49.4 416h16.2c-1.1 5.2-1.6 10.5-1.6 16 0 44.2 35.8 80 80 80s80-35.8 80-80c0-5.5-.6-10.8-1.6-16h195.2c-1.1 5.2-1.6 10.5-1.6 16 0 44.2 35.8 80 80 80s80-35.8 80-80c0-5.5-.6-10.8-1.6-16H632c4.4 0 8-3.6 8-8v-16c0-4.4-3.6-8-8-8zM460.1 160c8.4 0 16.7 3.4 22.6 9.4l83.9 83.9c.8.8 1.1 1.9 1.8 2.8H416v-96h44.1zM144 480c-26.5 0-48-21.5-48-48s21.5-48 48-48 48 21.5 48 48-21.5 48-48 48zm63.6-96C193 364.7 170 352 144 352s-49 12.7-63.6 32h-31c-9.6 0-17.4-6.5-17.4-14.6V78.6C32 70.5 39.8 64 49.4 64h317.2c9.6 0 17.4 6.5 17.4 14.6V384H207.6zM496 480c-26.5 0-48-21.5-48-48s21.5-48 48-48 48 21.5 48 48-21.5 48-48 48zm0-128c-26.1 0-49 12.7-63.6 32H416v-96h160v96h-16.4c-14.6-19.3-37.5-32-63.6-32z" class="Union" clip-rule="evenodd"/>
      </g>
    </symbol>
    <symbol id="invoice-icon-light" fill="none" viewBox="0 0 384 512">
      <g class="invoice-icon-light">
        <path fill="var(--icon-stroke)" fill-rule="evenodd" d="M312 416h-80c-4.42 0-8 3.58-8 8v16c0 4.42 3.58 8 8 8h80c4.42 0 8-3.58 8-8v-16c0-4.42-3.58-8-8-8zM64 240v96c0 8.84 8.19 16 18.29 16h219.43c10.1 0 18.29-7.16 18.29-16v-96c0-8.84-8.19-16-18.29-16H82.29C72.19 224 64 231.16 64 240zm32 16h192v64H96v-64zM72 96h112c4.42 0 8-3.58 8-8V72c0-4.42-3.58-8-8-8H72c-4.42 0-8 3.58-8 8v16c0 4.42 3.58 8 8 8zm0 64h112c4.42 0 8-3.58 8-8v-16c0-4.42-3.58-8-8-8H72c-4.42 0-8 3.58-8 8v16c0 4.42 3.58 8 8 8zm297.9-62.02L286.02 14.1c-9-9-21.2-14.1-33.89-14.1H47.99C21.5.1 0 21.6 0 48.09v415.92C0 490.5 21.5 512 47.99 512h288.02c26.49 0 47.99-21.5 47.99-47.99V131.97c0-12.69-5.1-24.99-14.1-33.99zM256.03 32.59c2.8.7 5.3 2.1 7.4 4.2l83.88 83.88c2.1 2.1 3.5 4.6 4.2 7.4h-95.48V32.59zm95.98 431.42c0 8.8-7.2 16-16 16H47.99c-8.8 0-16-7.2-16-16V48.09c0-8.8 7.2-16.09 16-16.09h176.04v104.07c0 13.3 10.7 23.93 24 23.93h103.98v304.01z" class="Union" clip-rule="evenodd"/>
      </g>
    </symbol>
  </defs>
</svg>
